<mxfile host="app.diagrams.net" modified="2024-03-13T18:33:15.465Z" agent="Mozilla/5.0 (Windows NT 10.0; Win64; x64) AppleWebKit/537.36 (KHTML, like Gecko) Chrome/121.0.0.0 Safari/537.36 OPR/107.0.0.0" etag="8Yu245mow5MjK8RKvur_" version="24.0.5" type="github">
  <diagram name="Página-1" id="X-MJ9KzEKgk_zObH7s3N">
    <mxGraphModel dx="908" dy="540" grid="1" gridSize="10" guides="1" tooltips="1" connect="1" arrows="1" fold="1" page="1" pageScale="1" pageWidth="827" pageHeight="1169" math="0" shadow="0">
      <root>
        <mxCell id="0" />
        <mxCell id="1" parent="0" />
        <mxCell id="XZX2ckNq5YLZJ_iz0whN-2" style="edgeStyle=orthogonalEdgeStyle;rounded=0;orthogonalLoop=1;jettySize=auto;html=1;" edge="1" parent="1" source="XZX2ckNq5YLZJ_iz0whN-1" target="XZX2ckNq5YLZJ_iz0whN-3">
          <mxGeometry relative="1" as="geometry">
            <mxPoint x="380" y="150" as="targetPoint" />
          </mxGeometry>
        </mxCell>
        <mxCell id="XZX2ckNq5YLZJ_iz0whN-1" value="Inicio" style="ellipse;whiteSpace=wrap;html=1;" vertex="1" parent="1">
          <mxGeometry x="320" y="30" width="120" height="80" as="geometry" />
        </mxCell>
        <mxCell id="XZX2ckNq5YLZJ_iz0whN-5" style="edgeStyle=orthogonalEdgeStyle;rounded=0;orthogonalLoop=1;jettySize=auto;html=1;entryX=0.5;entryY=0;entryDx=0;entryDy=0;" edge="1" parent="1" source="XZX2ckNq5YLZJ_iz0whN-3" target="XZX2ckNq5YLZJ_iz0whN-4">
          <mxGeometry relative="1" as="geometry" />
        </mxCell>
        <mxCell id="XZX2ckNq5YLZJ_iz0whN-3" value="Randon = [0, 100]" style="rounded=0;whiteSpace=wrap;html=1;" vertex="1" parent="1">
          <mxGeometry x="320" y="140" width="120" height="60" as="geometry" />
        </mxCell>
        <mxCell id="XZX2ckNq5YLZJ_iz0whN-23" value="" style="edgeStyle=orthogonalEdgeStyle;rounded=0;orthogonalLoop=1;jettySize=auto;html=1;" edge="1" parent="1" source="XZX2ckNq5YLZJ_iz0whN-4" target="XZX2ckNq5YLZJ_iz0whN-6">
          <mxGeometry relative="1" as="geometry" />
        </mxCell>
        <mxCell id="XZX2ckNq5YLZJ_iz0whN-4" value="&quot;Tente adivinhar o número aleatório!&quot;" style="shape=document;whiteSpace=wrap;html=1;boundedLbl=1;" vertex="1" parent="1">
          <mxGeometry x="320" y="230" width="120" height="80" as="geometry" />
        </mxCell>
        <mxCell id="XZX2ckNq5YLZJ_iz0whN-7" style="edgeStyle=orthogonalEdgeStyle;rounded=0;orthogonalLoop=1;jettySize=auto;html=1;exitX=0.5;exitY=1;exitDx=0;exitDy=0;" edge="1" parent="1" source="XZX2ckNq5YLZJ_iz0whN-6" target="XZX2ckNq5YLZJ_iz0whN-8">
          <mxGeometry relative="1" as="geometry">
            <mxPoint x="380" y="420" as="targetPoint" />
          </mxGeometry>
        </mxCell>
        <mxCell id="XZX2ckNq5YLZJ_iz0whN-6" value="num" style="shape=parallelogram;perimeter=parallelogramPerimeter;whiteSpace=wrap;html=1;fixedSize=1;" vertex="1" parent="1">
          <mxGeometry x="320" y="330" width="120" height="60" as="geometry" />
        </mxCell>
        <mxCell id="XZX2ckNq5YLZJ_iz0whN-14" style="edgeStyle=orthogonalEdgeStyle;rounded=0;orthogonalLoop=1;jettySize=auto;html=1;exitX=1;exitY=0.5;exitDx=0;exitDy=0;entryX=0;entryY=0.5;entryDx=0;entryDy=0;" edge="1" parent="1" source="XZX2ckNq5YLZJ_iz0whN-8" target="XZX2ckNq5YLZJ_iz0whN-12">
          <mxGeometry relative="1" as="geometry" />
        </mxCell>
        <mxCell id="XZX2ckNq5YLZJ_iz0whN-16" value="T" style="edgeLabel;html=1;align=center;verticalAlign=middle;resizable=0;points=[];" vertex="1" connectable="0" parent="XZX2ckNq5YLZJ_iz0whN-14">
          <mxGeometry x="-0.14" y="-1" relative="1" as="geometry">
            <mxPoint as="offset" />
          </mxGeometry>
        </mxCell>
        <mxCell id="XZX2ckNq5YLZJ_iz0whN-8" value="num == randon" style="rhombus;whiteSpace=wrap;html=1;" vertex="1" parent="1">
          <mxGeometry x="320" y="430" width="120" height="70" as="geometry" />
        </mxCell>
        <mxCell id="XZX2ckNq5YLZJ_iz0whN-10" value="Fim" style="ellipse;whiteSpace=wrap;html=1;" vertex="1" parent="1">
          <mxGeometry x="480" y="530" width="120" height="80" as="geometry" />
        </mxCell>
        <mxCell id="XZX2ckNq5YLZJ_iz0whN-15" style="edgeStyle=orthogonalEdgeStyle;rounded=0;orthogonalLoop=1;jettySize=auto;html=1;" edge="1" parent="1" source="XZX2ckNq5YLZJ_iz0whN-12" target="XZX2ckNq5YLZJ_iz0whN-10">
          <mxGeometry relative="1" as="geometry" />
        </mxCell>
        <mxCell id="XZX2ckNq5YLZJ_iz0whN-12" value="&quot;Acertou!&quot;" style="shape=document;whiteSpace=wrap;html=1;boundedLbl=1;" vertex="1" parent="1">
          <mxGeometry x="480" y="425" width="120" height="80" as="geometry" />
        </mxCell>
        <mxCell id="XZX2ckNq5YLZJ_iz0whN-22" style="edgeStyle=orthogonalEdgeStyle;rounded=0;orthogonalLoop=1;jettySize=auto;html=1;exitX=0.5;exitY=0;exitDx=0;exitDy=0;entryX=0;entryY=0.5;entryDx=0;entryDy=0;" edge="1" parent="1" source="XZX2ckNq5YLZJ_iz0whN-18" target="XZX2ckNq5YLZJ_iz0whN-6">
          <mxGeometry relative="1" as="geometry" />
        </mxCell>
        <mxCell id="XZX2ckNq5YLZJ_iz0whN-18" value="&quot;Errou!&lt;div&gt;Tente outra vez&quot;&lt;/div&gt;" style="shape=document;whiteSpace=wrap;html=1;boundedLbl=1;" vertex="1" parent="1">
          <mxGeometry x="170" y="380" width="120" height="65.5" as="geometry" />
        </mxCell>
        <mxCell id="XZX2ckNq5YLZJ_iz0whN-21" style="edgeStyle=orthogonalEdgeStyle;rounded=0;orthogonalLoop=1;jettySize=auto;html=1;exitX=0;exitY=0.5;exitDx=0;exitDy=0;" edge="1" parent="1" source="XZX2ckNq5YLZJ_iz0whN-8" target="XZX2ckNq5YLZJ_iz0whN-18">
          <mxGeometry relative="1" as="geometry">
            <Array as="points">
              <mxPoint x="230" y="465" />
            </Array>
          </mxGeometry>
        </mxCell>
        <mxCell id="XZX2ckNq5YLZJ_iz0whN-24" value="F" style="edgeLabel;html=1;align=center;verticalAlign=middle;resizable=0;points=[];" vertex="1" connectable="0" parent="XZX2ckNq5YLZJ_iz0whN-21">
          <mxGeometry x="-0.5769" y="3" relative="1" as="geometry">
            <mxPoint as="offset" />
          </mxGeometry>
        </mxCell>
      </root>
    </mxGraphModel>
  </diagram>
</mxfile>
